<?xml version="1.0" standalone="no"?>
<svg xmlns:xlink="http://www.w3.org/1999/xlink" id="wave" style="transform:rotate(0deg); transition: 0.3s" viewBox="0 0 1440 270" version="1.1" xmlns="http://www.w3.org/2000/svg"><defs><linearGradient id="sw-gradient-0" x1="0" x2="0" y1="1" y2="0"><stop stop-color="rgba(255, 255, 255, 1)" offset="0%"/><stop stop-color="rgba(255, 255, 255, 1)" offset="100%"/></linearGradient></defs><path style="transform:translate(0, 0px); opacity:1" fill="url(#sw-gradient-0)" d="M0,144L720,252L1440,144L2160,216L2880,288L3600,252L4320,324L5040,180L5760,144L6480,144L7200,288L7920,324L8640,324L9360,0L10080,216L10800,0L11520,0L12240,324L12960,180L13680,216L14400,144L15120,324L15840,0L16560,72L17280,36L17280,360L16560,360L15840,360L15120,360L14400,360L13680,360L12960,360L12240,360L11520,360L10800,360L10080,360L9360,360L8640,360L7920,360L7200,360L6480,360L5760,360L5040,360L4320,360L3600,360L2880,360L2160,360L1440,360L720,360L0,360Z"/></svg>